<svg xmlns="http://www.w3.org/2000/svg" width="900" height="400" viewBox="0 0 900 400">
<text x="450.0" y="20" text-anchor="middle" font-size="14">Core-arm equity curves (all windows, base cost)</text>
<line x1="50" y1="350" x2="850" y2="350" stroke="#ccc" />
<polyline points="50.0,64.3 51.0,68.2 52.1,67.7 53.1,71.1 54.1,73.1 55.2,76.9 56.2,73.8 57.3,75.3 58.3,77.3 59.3,79.5 60.4,79.8 61.4,79.2 62.4,80.5 63.5,81.1 64.5,78.1 65.5,82.9 66.6,87.6 67.6,90.8 68.7,90.1 69.7,90.6 70.7,90.2 71.8,87.9 72.8,86.7 73.8,90.2 74.9,92.1 75.9,91.8 76.9,91.7 78.0,95.9 79.0,96.3 80.1,90.0 81.1,90.0 82.1,96.3 83.2,100.1 84.2,96.9 85.2,100.6 86.3,97.8 87.3,93.7 88.3,93.7 89.4,97.3 90.4,98.3 91.5,95.0 92.5,95.1 93.5,95.0 94.6,96.0 95.6,94.1 96.6,97.0 97.7,94.8 98.7,98.9 99.7,99.2 100.8,98.0 101.8,93.8 102.8,95.3 103.9,95.2 104.9,95.8 106.0,98.2 107.0,102.3 108.0,105.2 109.1,99.7 110.1,100.6 111.1,98.4 112.2,101.0 113.2,97.2 114.2,95.7 115.3,93.9 116.3,94.4 117.4,95.7 118.4,98.6 119.4,96.2 120.5,96.2 121.5,95.7 122.5,97.5 123.6,97.9 124.6,90.2 125.6,90.7 126.7,93.3 127.7,92.4 128.8,94.6 129.8,95.4 130.8,91.7 131.9,95.9 132.9,99.8 133.9,95.8 135.0,96.9 136.0,97.0 137.0,94.3 138.1,91.7 139.1,90.6 140.2,87.7 141.2,87.4 142.2,88.6 143.3,92.3 144.3,92.5 145.3,94.1 146.4,96.4 147.4,99.6 148.4,96.6 149.5,97.2 150.5,99.3 151.6,100.5 152.6,98.2 153.6,96.1 154.7,96.4 155.7,95.8 156.7,97.9 157.8,99.7 158.8,97.7 159.8,99.7 160.9,99.2 161.9,93.7 163.0,95.3 164.0,95.2 165.0,96.5 166.1,95.5 167.1,93.9 168.1,97.4 169.2,98.2 170.2,99.0 171.2,102.7 172.3,101.7 173.3,104.6 174.4,105.8 175.4,104.4 176.4,105.2 177.5,103.3 178.5,101.2 179.5,101.5 180.6,99.9 181.6,101.5 182.6,102.1 183.7,102.6 184.7,105.2 185.8,103.8 186.8,104.1 187.8,107.2 188.9,109.4 189.9,105.5 190.9,108.6 192.0,109.5 193.0,105.5 194.0,104.6 195.1,106.3 196.1,108.0 197.2,109.1 198.2,111.8 199.2,109.4 200.3,110.4 201.3,111.2 202.3,113.2 203.4,117.9 204.4,117.6 205.4,117.3 206.5,115.7 207.5,115.5 208.5,116.6 209.6,114.1 210.6,112.5 211.7,115.0 212.7,115.3 213.7,113.8 214.8,115.7 215.8,115.7 216.8,119.5 217.9,120.3 218.9,121.6 219.9,124.1 221.0,127.3 222.0,125.9 223.1,128.3 224.1,123.4 225.1,121.6 226.2,122.7 227.2,124.4 228.2,122.7 229.3,124.2 230.3,131.2 231.3,132.9 232.4,134.0 233.4,136.6 234.5,136.8 235.5,137.2 236.5,135.4 237.6,133.5 238.6,132.8 239.6,136.7 240.7,136.6 241.7,136.8 242.7,139.2 243.8,138.5 244.8,138.6 245.9,137.3 246.9,131.5 247.9,125.2 249.0,123.9 250.0,124.8 251.0,124.9 252.1,122.7 253.1,126.6 254.1,123.9 255.2,122.5 256.2,127.0 257.3,132.9 258.3,131.7 259.3,130.8 260.4,129.8 261.4,131.8 262.4,134.2 263.5,136.7 264.5,137.9 265.5,136.9 266.6,141.7 267.6,138.4 268.7,139.7 269.7,139.6 270.7,141.1 271.8,139.9 272.8,136.5 273.8,135.1 274.9,136.8 275.9,139.2 276.9,137.8 278.0,143.1 279.0,143.9 280.1,142.6 281.1,141.6 282.1,139.1 283.2,130.3 284.2,127.5 285.2,131.9 286.3,135.3 287.3,138.2 288.3,140.2 289.4,133.3 290.4,132.1 291.5,129.0 292.5,131.4 293.5,130.3 294.6,127.4 295.6,129.3 296.6,128.8 297.7,129.5 298.7,132.4 299.7,136.1 300.8,133.8 301.8,133.4 302.8,133.0 303.9,131.9 304.9,127.4 306.0,123.2 307.0,123.6 308.0,124.9 309.1,119.6 310.1,118.4 311.1,120.8 312.2,117.8 313.2,120.4 314.2,119.6 315.3,120.7 316.3,118.7 317.4,118.9 318.4,120.6 319.4,114.1 320.5,118.3 321.5,120.6 322.5,121.5 323.6,120.7 324.6,120.7 325.6,121.9 326.7,115.1 327.7,118.8 328.8,119.9 329.8,118.8 330.8,121.4 331.9,123.7 332.9,126.7 333.9,126.2 335.0,123.9 336.0,127.5 337.0,137.5 338.1,133.9 339.1,139.2 340.2,133.4 341.2,139.9 342.2,141.2 343.3,141.3 344.3,138.3 345.3,137.2 346.4,140.1 347.4,144.1 348.4,139.8 349.5,139.5 350.5,136.6 351.6,135.4 352.6,141.3 353.6,143.0 354.7,133.8 355.7,137.2 356.7,137.8 357.8,136.6 358.8,138.9 359.8,144.5 360.9,143.7 361.9,142.3 363.0,143.5 364.0,147.0 365.0,147.5 366.1,150.8 367.1,153.7 368.1,153.2 369.2,156.3 370.2,161.3 371.2,161.2 372.3,162.6 373.3,162.9 374.4,164.6 375.4,160.1 376.4,160.5 377.5,161.5 378.5,166.3 379.5,165.3 380.6,168.1 381.6,165.1 382.6,164.9 383.7,166.4 384.7,167.8 385.8,168.2 386.8,168.2 387.8,169.7 388.9,171.1 389.9,175.8 390.9,176.9 392.0,172.6 393.0,173.0 394.0,171.8 395.1,173.1 396.1,164.2 397.2,164.0 398.2,168.3 399.2,169.2 400.3,171.8 401.3,170.4 402.3,174.0 403.4,167.5 404.4,166.9 405.4,167.2 406.5,164.0 407.5,167.6 408.5,168.0 409.6,170.2 410.6,172.5 411.7,171.2 412.7,172.3 413.7,172.9 414.8,169.0 415.8,165.7 416.8,167.5 417.9,162.6 418.9,161.2 419.9,161.6 421.0,163.5 422.0,159.9 423.1,160.9 424.1,158.3 425.1,157.1 426.2,159.2 427.2,155.5 428.2,163.1 429.3,161.0 430.3,163.8 431.3,162.9 432.4,156.9 433.4,160.3 434.5,155.3 435.5,156.8 436.5,158.7 437.6,161.5 438.6,163.9 439.6,159.0 440.7,159.5 441.7,159.5 442.7,159.5 443.8,159.5 444.8,159.5 445.9,159.5 446.9,159.5 447.9,159.5 449.0,159.5 450.0,159.5 451.0,159.5 452.1,159.5 453.1,159.5 454.1,159.5 455.2,159.5 456.2,159.5 457.3,159.5 458.3,159.5 459.3,159.5 460.4,159.5 461.4,159.5 462.4,159.5 463.5,159.5 464.5,159.5 465.5,159.5 466.6,159.5 467.6,159.5 468.7,159.5 469.7,159.5 470.7,159.5 471.8,159.5 472.8,159.5 473.8,159.5 474.9,159.5 475.9,159.5 476.9,159.5 478.0,159.5 479.0,159.5 480.1,159.5 481.1,159.5 482.1,159.5 483.2,159.5 484.2,159.5 485.2,159.5 486.3,159.5 487.3,159.5 488.3,159.5 489.4,159.5 490.4,159.5 491.5,159.5 492.5,159.5 493.5,159.5 494.6,159.5 495.6,159.5 496.6,159.5 497.7,159.5 498.7,159.5 499.7,159.5 500.8,159.5 501.8,159.5 502.8,159.5 503.9,159.2 504.9,161.1 506.0,164.1 507.0,172.3 508.0,169.4 509.1,151.7 510.1,149.8 511.1,151.2 512.2,157.6 513.2,156.0 514.2,160.6 515.3,166.8 516.3,164.8 517.4,164.7 518.4,169.2 519.4,168.8 520.5,170.5 521.5,175.8 522.5,180.8 523.6,185.7 524.6,180.3 525.6,180.6 526.7,175.5 527.7,176.3 528.8,179.2 529.8,181.1 530.8,181.5 531.9,183.9 532.9,187.5 533.9,187.4 535.0,186.4 536.0,187.4 537.0,183.3 538.1,183.7 539.1,186.5 540.2,184.8 541.2,185.8 542.2,185.9 543.3,183.4 544.3,185.0 545.3,182.5 546.4,181.3 547.4,184.9 548.4,182.6 549.5,186.5 550.5,186.2 551.6,186.0 552.6,188.1 553.6,191.4 554.7,192.1 555.7,192.5 556.7,193.3 557.8,192.4 558.8,192.2 559.8,196.0 560.9,193.7 561.9,197.3 563.0,201.9 564.0,204.3 565.0,208.5 566.1,209.9 567.1,211.9 568.1,205.8 569.2,204.9 570.2,204.7 571.2,204.6 572.3,208.9 573.3,211.4 574.4,208.0 575.4,208.6 576.4,210.0 577.5,205.9 578.5,210.0 579.5,211.5 580.6,207.2 581.6,206.6 582.6,205.1 583.7,206.6 584.7,208.0 585.8,208.0 586.8,208.2 587.8,209.9 588.9,210.1 589.9,211.2 590.9,209.1 592.0,206.1 593.0,205.3 594.0,207.6 595.1,208.5 596.1,203.6 597.2,203.9 598.2,207.3 599.2,205.4 600.3,209.9 601.3,206.8 602.3,203.3 603.4,206.0 604.4,204.8 605.4,208.9 606.5,205.0 607.5,205.4 608.5,207.2 609.6,208.8 610.6,211.5 611.7,209.4 612.7,214.8 613.7,217.3 614.8,220.4 615.8,216.6 616.8,216.1 617.9,217.3 618.9,219.2 619.9,220.4 621.0,222.8 622.0,223.1 623.1,225.3 624.1,227.4 625.1,230.6 626.2,231.1 627.2,230.4 628.2,232.3 629.3,233.6 630.3,231.6 631.3,228.9 632.4,228.5 633.4,229.7 634.5,225.5 635.5,224.8 636.5,226.6 637.6,225.9 638.6,224.6 639.6,225.7 640.7,228.2 641.7,223.3 642.7,224.1 643.8,222.8 644.8,220.9 645.9,214.9 646.9,217.5 647.9,218.1 649.0,220.1 650.0,222.1 651.0,224.6 652.1,225.6 653.1,228.1 654.1,227.2 655.2,231.8 656.2,234.7 657.3,234.0 658.3,232.3 659.3,234.4 660.4,231.3 661.4,233.5 662.4,236.7 663.5,234.8 664.5,235.0 665.5,233.0 666.6,225.3 667.6,221.6 668.7,224.9 669.7,221.3 670.7,219.9 671.8,215.5 672.8,216.8 673.8,214.7 674.9,218.3 675.9,218.7 676.9,216.9 678.0,217.1 679.0,219.8 680.1,220.3 681.1,221.4 682.1,222.4 683.2,223.3 684.2,223.5 685.2,223.7 686.3,226.7 687.3,226.2 688.3,224.2 689.4,225.5 690.4,219.0 691.5,221.2 692.5,221.7 693.5,224.2 694.6,225.0 695.6,227.7 696.6,228.2 697.7,229.9 698.7,231.0 699.7,231.6 700.8,233.6 701.8,235.0 702.8,232.0 703.9,227.9 704.9,226.4 706.0,229.0 707.0,222.7 708.0,221.8 709.1,216.9 710.1,216.4 711.1,216.2 712.2,215.0 713.2,214.2 714.2,218.6 715.3,223.2 716.3,222.8 717.4,224.6 718.4,227.4 719.4,222.5 720.5,219.8 721.5,213.8 722.5,212.8 723.6,207.2 724.6,209.7 725.6,210.0 726.7,213.8 727.7,215.6 728.8,212.0 729.8,204.7 730.8,209.8 731.9,217.3 732.9,216.4 733.9,218.1 735.0,221.2 736.0,218.0 737.0,221.4 738.1,223.4 739.1,220.9 740.2,219.4 741.2,220.0 742.2,218.1 743.3,217.5 744.3,219.0 745.3,220.0 746.4,222.0 747.4,222.3 748.4,222.1 749.5,218.9 750.5,221.6 751.6,225.5 752.6,224.5 753.6,224.9 754.7,227.0 755.7,225.4 756.7,223.2 757.8,218.1 758.8,219.1 759.8,215.0 760.9,212.4 761.9,205.0 763.0,209.6 764.0,204.9 765.0,208.1 766.1,208.8 767.1,214.7 768.1,209.8 769.2,211.7 770.2,212.7 771.2,215.8 772.3,220.4 773.3,218.5 774.4,220.1 775.4,221.2 776.4,217.1 777.5,216.5 778.5,213.3 779.5,217.1 780.6,218.7 781.6,218.3 782.6,215.3 783.7,215.2 784.7,207.9 785.8,213.7 786.8,215.9 787.8,215.9 788.9,213.8 789.9,209.4 790.9,207.8 792.0,214.5 793.0,219.2 794.0,220.6 795.1,224.3 796.1,220.0 797.2,217.8 798.2,218.3 799.2,214.1 800.3,217.5 801.3,214.9 802.3,215.9 803.4,214.6 804.4,218.5 805.4,219.6 806.5,217.3 807.5,216.7 808.5,215.7 809.6,210.6 810.6,212.9 811.7,214.3 812.7,215.7 813.7,215.8 814.8,216.4 815.8,216.0 816.8,215.2 817.9,215.9 818.9,216.3 819.9,212.6 821.0,215.8 822.0,217.0 823.1,219.2 824.1,217.6 825.1,215.9 826.2,218.7 827.2,214.3 828.2,214.4 829.3,211.0 830.3,212.5 831.3,209.0 832.4,206.0 833.4,204.2 834.5,201.0 835.5,204.7 836.5,205.4 837.6,207.6 838.6,206.5 839.6,210.4 840.7,203.7 841.7,201.6 842.7,200.4 843.8,199.1 844.8,199.1 845.9,191.0 846.9,191.8 847.9,187.2 849.0,182.6 850.0,181.8" fill="none" stroke="#1f77b4" stroke-width="1.5" />
<text x="60" y="35" font-size="11" fill="#1f77b4">ext2_base</text>
<polyline points="50.0,62.3 51.0,65.8 52.1,62.6 53.1,61.5 54.1,64.2 55.2,66.2 56.2,64.5 57.3,63.8 58.3,70.6 59.3,67.1 60.4,64.1 61.4,60.3 62.4,51.2 63.5,53.8 64.5,50.7 65.5,50.0 66.6,50.2 67.6,55.6 68.7,54.1 69.7,56.8 70.7,56.4 71.8,56.2 72.8,57.6 73.8,59.3 74.9,62.8 75.9,66.3 76.9,65.8 78.0,74.5 79.0,73.1 80.1,72.4 81.1,70.7 82.1,71.1 83.2,68.5 84.2,78.3 85.2,76.6 86.3,74.4 87.3,71.8 88.3,67.2 89.4,72.8 90.4,76.9 91.5,69.8 92.5,68.0 93.5,68.2 94.6,68.8 95.6,72.9 96.6,74.1 97.7,75.0 98.7,75.4 99.7,74.7 100.8,75.3 101.8,70.5 102.8,73.0 103.9,79.2 104.9,79.6 106.0,82.9 107.0,81.5 108.0,84.5 109.1,84.2 110.1,87.8 111.1,84.5 112.2,82.8 113.2,83.2 114.2,86.1 115.3,85.7 116.3,81.4 117.4,85.3 118.4,92.6 119.4,93.0 120.5,94.8 121.5,96.5 122.5,100.0 123.6,101.8 124.6,99.4 125.6,103.3 126.7,99.5 127.7,102.3 128.8,110.2 129.8,107.5 130.8,107.2 131.9,108.8 132.9,115.7 133.9,112.7 135.0,110.2 136.0,111.2 137.0,109.1 138.1,108.3 139.1,106.5 140.2,105.0 141.2,104.0 142.2,102.8 143.3,106.7 144.3,102.5 145.3,101.1 146.4,101.7 147.4,101.3 148.4,103.0 149.5,103.9 150.5,100.4 151.6,100.3 152.6,101.2 153.6,105.5 154.7,106.4 155.7,109.9 156.7,111.7 157.8,112.6 158.8,108.0 159.8,105.7 160.9,109.9 161.9,112.1 163.0,120.5 164.0,118.7 165.0,118.9 166.1,119.7 167.1,115.2 168.1,114.7 169.2,106.9 170.2,107.1 171.2,103.9 172.3,103.4 173.3,110.2 174.4,109.7 175.4,111.5 176.4,110.8 177.5,112.7 178.5,111.0 179.5,113.2 180.6,116.3 181.6,112.9 182.6,116.7 183.7,118.2 184.7,120.5 185.8,118.9 186.8,119.7 187.8,121.5 188.9,121.0 189.9,115.5 190.9,116.6 192.0,116.7 193.0,112.3 194.0,119.1 195.1,120.6 196.1,121.7 197.2,121.2 198.2,120.2 199.2,119.8 200.3,116.5 201.3,123.6 202.3,121.7 203.4,125.4 204.4,125.6 205.4,125.5 206.5,130.1 207.5,131.6 208.5,130.3 209.6,134.0 210.6,132.2 211.7,133.1 212.7,135.3 213.7,137.0 214.8,138.8 215.8,142.7 216.8,139.9 217.9,141.7 218.9,145.0 219.9,145.1 221.0,150.8 222.0,147.9 223.1,149.0 224.1,154.2 225.1,158.0 226.2,161.5 227.2,157.0 228.2,162.4 229.3,164.6 230.3,162.0 231.3,161.9 232.4,162.9 233.4,164.0 234.5,161.8 235.5,160.7 236.5,158.8 237.6,153.6 238.6,154.2 239.6,155.5 240.7,157.1 241.7,157.9 242.7,159.3 243.8,156.5 244.8,160.9 245.9,160.5 246.9,156.3 247.9,158.5 249.0,159.6 250.0,161.2 251.0,160.6 252.1,166.2 253.1,164.7 254.1,158.0 255.2,159.6 256.2,153.6 257.3,156.0 258.3,153.4 259.3,150.5 260.4,151.7 261.4,149.6 262.4,154.3 263.5,153.4 264.5,154.1 265.5,155.3 266.6,152.1 267.6,155.1 268.7,159.1 269.7,156.8 270.7,158.2 271.8,158.0 272.8,155.8 273.8,155.2 274.9,159.6 275.9,156.0 276.9,156.5 278.0,152.3 279.0,151.8 280.1,149.2 281.1,144.7 282.1,143.0 283.2,140.6 284.2,141.8 285.2,143.4 286.3,145.6 287.3,148.7 288.3,149.1 289.4,145.1 290.4,149.1 291.5,147.2 292.5,149.1 293.5,151.3 294.6,152.3 295.6,146.2 296.6,144.2 297.7,147.7 298.7,149.4 299.7,147.1 300.8,145.9 301.8,145.7 302.8,149.4 303.9,148.6 304.9,146.0 306.0,147.0 307.0,147.4 308.0,153.9 309.1,148.7 310.1,148.7 311.1,150.1 312.2,145.1 313.2,148.1 314.2,147.9 315.3,147.2 316.3,153.4 317.4,155.4 318.4,154.2 319.4,151.5 320.5,149.0 321.5,161.6 322.5,164.8 323.6,169.7 324.6,170.6 325.6,168.2 326.7,174.8 327.7,179.2 328.8,178.1 329.8,174.6 330.8,176.7 331.9,170.7 332.9,168.2 333.9,170.7 335.0,167.9 336.0,159.4 337.0,157.8 338.1,159.3 339.1,158.6 340.2,160.4 341.2,161.6 342.2,159.0 343.3,159.8 344.3,158.1 345.3,161.9 346.4,165.4 347.4,168.5 348.4,173.1 349.5,176.4 350.5,174.4 351.6,176.4 352.6,173.5 353.6,176.2 354.7,175.7 355.7,179.8 356.7,183.5 357.8,177.8 358.8,176.0 359.8,180.1 360.9,187.5 361.9,189.4 363.0,186.1 364.0,192.3 365.0,197.7 366.1,199.4 367.1,193.2 368.1,193.2 369.2,195.6 370.2,202.3 371.2,204.1 372.3,206.2 373.3,204.9 374.4,207.1 375.4,208.5 376.4,207.5 377.5,209.5 378.5,211.2 379.5,217.8 380.6,213.2 381.6,209.7 382.6,210.7 383.7,209.7 384.7,212.8 385.8,214.3 386.8,215.9 387.8,215.1 388.9,215.1 389.9,218.1 390.9,219.4 392.0,219.0 393.0,220.2 394.0,224.8 395.1,229.8 396.1,225.9 397.2,231.6 398.2,231.3 399.2,234.5 400.3,234.8 401.3,234.2 402.3,231.8 403.4,230.6 404.4,232.3 405.4,235.9 406.5,233.7 407.5,232.9 408.5,234.7 409.6,230.8 410.6,227.9 411.7,225.5 412.7,229.1 413.7,232.1 414.8,229.1 415.8,231.0 416.8,231.5 417.9,231.0 418.9,228.7 419.9,229.9 421.0,229.7 422.0,225.6 423.1,225.5 424.1,229.0 425.1,234.7 426.2,241.2 427.2,242.4 428.2,240.8 429.3,240.0 430.3,239.0 431.3,244.4 432.4,242.0 433.4,236.6 434.5,234.1 435.5,239.8 436.5,241.1 437.6,239.4 438.6,246.3 439.6,250.6 440.7,248.7 441.7,248.7 442.7,248.7 443.8,248.7 444.8,248.7 445.9,248.7 446.9,248.7 447.9,248.7 449.0,248.7 450.0,248.7 451.0,248.7 452.1,248.7 453.1,248.7 454.1,248.7 455.2,248.7 456.2,248.7 457.3,248.7 458.3,248.7 459.3,248.7 460.4,248.7 461.4,248.7 462.4,248.7 463.5,248.7 464.5,248.7 465.5,248.7 466.6,248.7 467.6,248.7 468.7,248.7 469.7,248.7 470.7,248.7 471.8,248.7 472.8,248.7 473.8,248.7 474.9,248.7 475.9,248.7 476.9,248.7 478.0,248.7 479.0,248.7 480.1,248.7 481.1,248.7 482.1,248.7 483.2,248.7 484.2,248.7 485.2,248.7 486.3,248.7 487.3,248.7 488.3,248.7 489.4,248.7 490.4,248.7 491.5,248.7 492.5,248.7 493.5,248.7 494.6,248.7 495.6,248.7 496.6,248.7 497.7,248.7 498.7,248.7 499.7,248.7 500.8,248.7 501.8,248.7 502.8,248.7 503.9,256.8 504.9,253.7 506.0,250.5 507.0,237.4 508.0,240.7 509.1,235.6 510.1,253.3 511.1,252.2 512.2,255.2 513.2,257.7 514.2,264.8 515.3,265.0 516.3,262.8 517.4,259.7 518.4,262.7 519.4,271.9 520.5,265.6 521.5,252.5 522.5,258.2 523.6,254.8 524.6,247.8 525.6,246.3 526.7,250.8 527.7,249.6 528.8,245.7 529.8,243.4 530.8,245.5 531.9,248.4 532.9,251.4 533.9,249.7 535.0,245.3 536.0,242.9 537.0,242.7 538.1,245.2 539.1,244.8 540.2,247.9 541.2,247.7 542.2,247.8 543.3,246.3 544.3,243.5 545.3,242.2 546.4,243.2 547.4,248.0 548.4,243.6 549.5,247.1 550.5,247.1 551.6,246.3 552.6,246.8 553.6,242.9 554.7,240.8 555.7,242.3 556.7,247.5 557.8,246.9 558.8,252.1 559.8,255.4 560.9,253.0 561.9,256.5 563.0,255.9 564.0,253.0 565.0,247.8 566.1,246.3 567.1,249.1 568.1,243.8 569.2,240.5 570.2,239.7 571.2,243.6 572.3,243.0 573.3,247.3 574.4,246.8 575.4,245.8 576.4,245.0 577.5,242.5 578.5,243.4 579.5,242.9 580.6,245.6 581.6,246.8 582.6,250.7 583.7,250.6 584.7,253.1 585.8,254.3 586.8,253.4 587.8,256.7 588.9,256.3 589.9,255.1 590.9,256.4 592.0,253.5 593.0,255.2 594.0,249.9 595.1,255.1 596.1,253.1 597.2,254.8 598.2,257.7 599.2,258.4 600.3,259.1 601.3,263.6 602.3,263.1 603.4,268.0 604.4,278.0 605.4,281.4 606.5,277.5 607.5,275.1 608.5,270.0 609.6,271.4 610.6,270.0 611.7,268.4 612.7,272.2 613.7,272.3 614.8,275.7 615.8,277.9 616.8,284.3 617.9,281.9 618.9,281.7 619.9,278.9 621.0,280.1 622.0,282.9 623.1,283.7 624.1,287.0 625.1,285.9 626.2,286.6 627.2,288.1 628.2,296.1 629.3,296.9 630.3,293.8 631.3,296.0 632.4,294.3 633.4,293.9 634.5,293.9 635.5,297.8 636.5,295.5 637.6,298.9 638.6,303.0 639.6,299.6 640.7,300.5 641.7,309.7 642.7,313.3 643.8,306.0 644.8,310.6 645.9,312.6 646.9,315.9 647.9,314.8 649.0,314.4 650.0,317.3 651.0,319.3 652.1,318.3 653.1,316.1 654.1,321.2 655.2,317.1 656.2,321.0 657.3,321.9 658.3,317.2 659.3,319.6 660.4,320.6 661.4,316.8 662.4,321.8 663.5,322.7 664.5,324.2 665.5,320.9 666.6,324.8 667.6,325.5 668.7,325.8 669.7,335.8 670.7,337.2 671.8,335.9 672.8,334.6 673.8,332.2 674.9,335.1 675.9,337.7 676.9,336.4 678.0,335.8 679.0,336.0 680.1,330.4 681.1,329.5 682.1,333.4 683.2,332.4 684.2,335.1 685.2,333.2 686.3,332.8 687.3,327.6 688.3,324.5 689.4,322.8 690.4,318.3 691.5,322.3 692.5,320.4 693.5,320.5 694.6,321.5 695.6,322.9 696.6,324.1 697.7,326.4 698.7,329.6 699.7,328.9 700.8,318.0 701.8,319.8 702.8,319.9 703.9,322.5 704.9,317.9 706.0,324.4 707.0,320.3 708.0,318.0 709.1,320.2 710.1,320.3 711.1,321.1 712.2,318.9 713.2,315.3 714.2,313.0 715.3,311.8 716.3,309.6 717.4,310.6 718.4,315.8 719.4,316.6 720.5,319.2 721.5,313.9 722.5,312.5 723.6,307.4 724.6,306.1 725.6,305.2 726.7,304.5 727.7,308.3 728.8,306.0 729.8,302.4 730.8,301.0 731.9,309.8 732.9,314.5 733.9,318.4 735.0,321.3 736.0,319.3 737.0,326.7 738.1,329.7 739.1,328.8 740.2,323.4 741.2,321.5 742.2,329.9 743.3,332.1 744.3,330.6 745.3,336.3 746.4,340.2 747.4,344.8 748.4,350.0 749.5,347.1 750.5,344.3 751.6,344.7 752.6,346.8 753.6,343.2 754.7,342.8 755.7,338.8 756.7,338.8 757.8,336.8 758.8,339.0 759.8,342.4 760.9,334.7 761.9,331.9 763.0,333.9 764.0,332.3 765.0,328.8 766.1,329.9 767.1,335.2 768.1,330.3 769.2,331.5 770.2,332.5 771.2,329.2 772.3,331.9 773.3,325.0 774.4,325.8 775.4,329.3 776.4,327.3 777.5,328.7 778.5,324.6 779.5,325.4 780.6,320.4 781.6,320.6 782.6,320.4 783.7,322.2 784.7,320.3 785.8,325.9 786.8,327.3 787.8,327.2 788.9,323.5 789.9,325.2 790.9,322.6 792.0,316.5 793.0,313.8 794.0,308.0 795.1,308.1 796.1,305.9 797.2,308.7 798.2,310.0 799.2,310.4 800.3,315.5 801.3,315.5 802.3,316.5 803.4,318.7 804.4,320.3 805.4,317.3 806.5,316.2 807.5,315.5 808.5,316.4 809.6,317.1 810.6,308.0 811.7,312.6 812.7,300.1 813.7,297.7 814.8,304.9 815.8,307.3 816.8,307.2 817.9,306.3 818.9,311.6 819.9,310.2 821.0,311.2 822.0,314.5 823.1,314.7 824.1,317.7 825.1,320.3 826.2,319.9 827.2,313.7 828.2,313.2 829.3,310.1 830.3,306.8 831.3,313.5 832.4,317.1 833.4,310.5 834.5,311.7 835.5,311.7 836.5,310.7 837.6,305.6 838.6,307.5 839.6,312.4 840.7,308.4 841.7,312.0 842.7,309.4 843.8,308.8 844.8,309.3 845.9,306.1 846.9,312.3 847.9,313.5 849.0,310.2 850.0,311.0" fill="none" stroke="#ff7f0e" stroke-width="1.5" />
<text x="60" y="50" font-size="11" fill="#ff7f0e">orb30_base</text>
<polyline points="50.0,64.0 51.0,64.7 52.1,65.7 53.1,65.9 54.1,65.8 55.2,65.9 56.2,65.2 57.3,65.6 58.3,65.9 59.3,65.8 60.4,64.0 61.4,64.6 62.4,64.6 63.5,64.6 64.5,65.7 65.5,64.3 66.6,65.4 67.6,63.6 68.7,64.5 69.7,65.4 70.7,64.7 71.8,65.7 72.8,65.9 73.8,65.5 74.9,65.6 75.9,67.4 76.9,69.1 78.0,69.0 79.0,69.0 80.1,67.9 81.1,66.3 82.1,65.9 83.2,63.7 84.2,63.7 85.2,64.0 86.3,62.0 87.3,61.9 88.3,61.5 89.4,60.6 90.4,61.9 91.5,62.2 92.5,61.3 93.5,60.7 94.6,60.2 95.6,61.2 96.6,60.4 97.7,60.4 98.7,60.7 99.7,60.9 100.8,61.4 101.8,57.7 102.8,57.8 103.9,58.2 104.9,57.9 106.0,59.1 107.0,55.7 108.0,54.4 109.1,54.7 110.1,54.7 111.1,53.3 112.2,52.5 113.2,53.0 114.2,52.3 115.3,52.7 116.3,53.9 117.4,53.0 118.4,55.0 119.4,56.1 120.5,56.8 121.5,58.5 122.5,57.0 123.6,57.3 124.6,57.3 125.6,58.0 126.7,56.4 127.7,57.1 128.8,59.3 129.8,59.1 130.8,59.1 131.9,59.8 132.9,60.6 133.9,61.5 135.0,62.6 136.0,63.8 137.0,64.7 138.1,62.8 139.1,62.3 140.2,62.9 141.2,62.7 142.2,62.8 143.3,61.1 144.3,60.3 145.3,60.3 146.4,59.9 147.4,59.8 148.4,60.2 149.5,60.7 150.5,60.5 151.6,60.4 152.6,59.5 153.6,58.8 154.7,59.2 155.7,59.7 156.7,58.8 157.8,58.8 158.8,58.8 159.8,58.2 160.9,59.6 161.9,59.8 163.0,60.0 164.0,61.1 165.0,60.9 166.1,61.2 167.1,61.8 168.1,60.5 169.2,61.0 170.2,61.8 171.2,62.4 172.3,62.3 173.3,61.5 174.4,60.9 175.4,62.1 176.4,62.2 177.5,62.2 178.5,62.3 179.5,63.4 180.6,63.4 181.6,64.4 182.6,64.8 183.7,66.1 184.7,66.6 185.8,67.0 186.8,68.0 187.8,68.0 188.9,68.7 189.9,69.1 190.9,69.8 192.0,71.5 193.0,71.1 194.0,72.0 195.1,71.2 196.1,70.4 197.2,71.8 198.2,73.7 199.2,74.0 200.3,73.7 201.3,75.3 202.3,76.5 203.4,78.3 204.4,78.1 205.4,77.7 206.5,77.6 207.5,78.0 208.5,78.6 209.6,78.9 210.6,79.8 211.7,80.0 212.7,80.0 213.7,80.1 214.8,81.0 215.8,81.0 216.8,80.2 217.9,80.3 218.9,80.2 219.9,80.5 221.0,81.2 222.0,80.9 223.1,80.8 224.1,83.0 225.1,83.3 226.2,82.6 227.2,82.6 228.2,84.1 229.3,85.6 230.3,86.2 231.3,88.1 232.4,88.1 233.4,88.0 234.5,87.6 235.5,87.1 236.5,83.2 237.6,83.1 238.6,84.1 239.6,84.3 240.7,83.4 241.7,82.5 242.7,83.1 243.8,83.1 244.8,82.6 245.9,82.9 246.9,83.9 247.9,85.8 249.0,85.2 250.0,85.5 251.0,87.4 252.1,87.8 253.1,87.9 254.1,88.6 255.2,91.3 256.2,91.0 257.3,91.4 258.3,89.0 259.3,89.3 260.4,88.9 261.4,88.0 262.4,87.9 263.5,88.5 264.5,89.6 265.5,88.0 266.6,90.9 267.6,90.8 268.7,91.0 269.7,91.0 270.7,90.2 271.8,89.3 272.8,87.8 273.8,87.8 274.9,88.6 275.9,89.4 276.9,89.4 278.0,89.5 279.0,89.5 280.1,90.4 281.1,89.6 282.1,89.9 283.2,83.8 284.2,83.1 285.2,83.1 286.3,83.5 287.3,83.5 288.3,82.0 289.4,84.7 290.4,85.8 291.5,84.9 292.5,85.8 293.5,85.4 294.6,85.7 295.6,84.5 296.6,82.2 297.7,83.5 298.7,82.5 299.7,82.3 300.8,82.8 301.8,82.7 302.8,82.9 303.9,83.1 304.9,82.5 306.0,82.8 307.0,82.4 308.0,84.1 309.1,84.1 310.1,82.4 311.1,81.9 312.2,81.9 313.2,82.1 314.2,80.5 315.3,80.5 316.3,80.4 317.4,80.6 318.4,79.7 319.4,79.4 320.5,79.5 321.5,80.3 322.5,81.1 323.6,82.3 324.6,82.2 325.6,82.0 326.7,77.9 327.7,78.8 328.8,78.7 329.8,79.2 330.8,80.4 331.9,80.4 332.9,81.5 333.9,81.5 335.0,81.5 336.0,82.0 337.0,81.7 338.1,81.2 339.1,84.3 340.2,84.3 341.2,84.6 342.2,84.6 343.3,84.4 344.3,84.4 345.3,84.4 346.4,86.5 347.4,86.8 348.4,90.5 349.5,90.9 350.5,91.8 351.6,92.3 352.6,91.3 353.6,89.2 354.7,89.7 355.7,90.0 356.7,89.2 357.8,89.2 358.8,90.7 359.8,83.7 360.9,84.1 361.9,83.8 363.0,82.0 364.0,83.6 365.0,84.7 366.1,86.9 367.1,86.9 368.1,85.8 369.2,85.8 370.2,85.8 371.2,85.5 372.3,84.6 373.3,84.7 374.4,86.2 375.4,86.1 376.4,86.8 377.5,87.0 378.5,87.8 379.5,87.8 380.6,88.0 381.6,87.2 382.6,86.8 383.7,86.9 384.7,87.3 385.8,87.6 386.8,86.2 387.8,88.3 388.9,87.6 389.9,87.9 390.9,87.4 392.0,87.8 393.0,87.4 394.0,88.3 395.1,87.9 396.1,88.3 397.2,89.1 398.2,90.2 399.2,91.7 400.3,91.7 401.3,91.0 402.3,91.0 403.4,90.8 404.4,91.4 405.4,91.9 406.5,90.8 407.5,90.9 408.5,90.7 409.6,89.3 410.6,89.8 411.7,90.3 412.7,90.9 413.7,90.7 414.8,91.7 415.8,92.0 416.8,92.8 417.9,92.3 418.9,91.7 419.9,91.8 421.0,90.5 422.0,90.5 423.1,91.7 424.1,88.4 425.1,89.5 426.2,88.7 427.2,89.5 428.2,90.4 429.3,88.1 430.3,88.1 431.3,88.5 432.4,83.0 433.4,83.8 434.5,83.8 435.5,87.4 436.5,87.0 437.6,87.6 438.6,88.5 439.6,89.4 440.7,90.5 441.7,90.5 442.7,90.5 443.8,90.5 444.8,90.5 445.9,90.5 446.9,90.5 447.9,90.5 449.0,90.5 450.0,90.5 451.0,90.5 452.1,90.5 453.1,90.5 454.1,90.5 455.2,90.5 456.2,90.5 457.3,90.5 458.3,90.5 459.3,90.5 460.4,90.5 461.4,90.5 462.4,90.5 463.5,90.5 464.5,90.5 465.5,90.5 466.6,90.5 467.6,90.5 468.7,90.5 469.7,90.5 470.7,90.5 471.8,90.5 472.8,90.5 473.8,90.5 474.9,90.5 475.9,90.5 476.9,90.5 478.0,90.5 479.0,90.5 480.1,90.5 481.1,90.5 482.1,90.5 483.2,90.5 484.2,90.5 485.2,90.5 486.3,90.5 487.3,90.5 488.3,90.5 489.4,90.5 490.4,90.5 491.5,90.5 492.5,90.5 493.5,90.5 494.6,90.5 495.6,90.5 496.6,90.5 497.7,90.5 498.7,90.5 499.7,90.5 500.8,90.5 501.8,90.5 502.8,90.5 503.9,89.7 504.9,90.3 506.0,89.2 507.0,87.3 508.0,87.3 509.1,82.8 510.1,86.1 511.1,90.0 512.2,90.0 513.2,89.9 514.2,90.4 515.3,84.8 516.3,87.4 517.4,86.6 518.4,89.4 519.4,92.7 520.5,91.9 521.5,91.9 522.5,92.3 523.6,91.2 524.6,91.1 525.6,91.2 526.7,92.8 527.7,93.1 528.8,96.4 529.8,93.7 530.8,92.4 531.9,91.9 532.9,91.5 533.9,85.8 535.0,86.4 536.0,86.6 537.0,87.1 538.1,87.1 539.1,88.9 540.2,90.5 541.2,91.5 542.2,91.3 543.3,91.0 544.3,90.1 545.3,89.1 546.4,86.2 547.4,86.9 548.4,86.9 549.5,88.3 550.5,89.1 551.6,88.6 552.6,89.9 553.6,89.5 554.7,89.3 555.7,90.6 556.7,89.8 557.8,90.2 558.8,91.9 559.8,93.9 560.9,93.5 561.9,91.8 563.0,91.9 564.0,91.9 565.0,93.3 566.1,94.7 567.1,95.2 568.1,95.9 569.2,95.9 570.2,95.5 571.2,95.9 572.3,95.7 573.3,95.0 574.4,94.1 575.4,94.1 576.4,93.7 577.5,93.2 578.5,93.1 579.5,93.3 580.6,93.9 581.6,94.7 582.6,95.2 583.7,96.4 584.7,97.5 585.8,97.3 586.8,98.0 587.8,98.5 588.9,98.0 589.9,99.0 590.9,101.2 592.0,102.0 593.0,102.7 594.0,103.0 595.1,102.4 596.1,102.8 597.2,104.7 598.2,104.2 599.2,102.5 600.3,102.8 601.3,102.8 602.3,102.4 603.4,104.0 604.4,105.1 605.4,105.5 606.5,105.8 607.5,106.1 608.5,106.1 609.6,106.4 610.6,106.4 611.7,105.7 612.7,105.5 613.7,105.0 614.8,106.4 615.8,108.3 616.8,109.1 617.9,107.3 618.9,106.2 619.9,104.8 621.0,105.9 622.0,106.5 623.1,105.8 624.1,107.0 625.1,107.3 626.2,106.9 627.2,105.7 628.2,106.6 629.3,107.2 630.3,107.1 631.3,108.9 632.4,107.9 633.4,108.8 634.5,107.8 635.5,107.4 636.5,108.3 637.6,107.9 638.6,108.3 639.6,109.4 640.7,110.6 641.7,108.6 642.7,109.0 643.8,109.2 644.8,110.2 645.9,111.4 646.9,111.2 647.9,112.1 649.0,114.5 650.0,115.3 651.0,115.5 652.1,116.1 653.1,114.8 654.1,110.7 655.2,112.9 656.2,113.8 657.3,112.6 658.3,113.0 659.3,118.4 660.4,117.2 661.4,122.5 662.4,123.9 663.5,123.2 664.5,124.7 665.5,124.4 666.6,124.1 667.6,123.6 668.7,123.6 669.7,123.6 670.7,123.7 671.8,123.6 672.8,123.6 673.8,123.9 674.9,125.1 675.9,125.5 676.9,124.9 678.0,124.4 679.0,124.9 680.1,126.4 681.1,127.9 682.1,127.8 683.2,130.4 684.2,130.6 685.2,127.6 686.3,128.2 687.3,128.0 688.3,127.9 689.4,127.5 690.4,128.1 691.5,128.2 692.5,128.8 693.5,128.8 694.6,128.8 695.6,129.3 696.6,129.5 697.7,128.9 698.7,129.4 699.7,129.0 700.8,129.0 701.8,129.5 702.8,129.4 703.9,128.8 704.9,128.8 706.0,127.5 707.0,129.4 708.0,130.0 709.1,130.2 710.1,131.4 711.1,131.4 712.2,130.2 713.2,128.7 714.2,128.4 715.3,128.5 716.3,128.6 717.4,129.5 718.4,129.8 719.4,130.8 720.5,129.3 721.5,129.6 722.5,125.5 723.6,127.1 724.6,127.1 725.6,127.3 726.7,127.5 727.7,129.3 728.8,128.9 729.8,128.9 730.8,127.4 731.9,127.9 732.9,128.3 733.9,128.9 735.0,127.7 736.0,128.0 737.0,128.6 738.1,129.0 739.1,129.5 740.2,130.3 741.2,130.3 742.2,131.6 743.3,132.1 744.3,132.4 745.3,133.8 746.4,136.1 747.4,137.7 748.4,140.0 749.5,140.5 750.5,140.1 751.6,141.2 752.6,140.7 753.6,138.6 754.7,140.2 755.7,139.5 756.7,138.9 757.8,139.6 758.8,142.7 759.8,143.9 760.9,142.1 761.9,141.6 763.0,144.4 764.0,144.2 765.0,143.7 766.1,144.5 767.1,146.3 768.1,146.3 769.2,145.3 770.2,146.3 771.2,145.9 772.3,145.4 773.3,144.6 774.4,142.9 775.4,143.0 776.4,142.5 777.5,142.4 778.5,143.1 779.5,141.7 780.6,143.4 781.6,142.9 782.6,142.9 783.7,143.5 784.7,142.8 785.8,142.7 786.8,142.8 787.8,142.0 788.9,142.6 789.9,145.0 790.9,143.9 792.0,143.8 793.0,142.0 794.0,142.0 795.1,140.7 796.1,141.4 797.2,141.6 798.2,143.1 799.2,143.9 800.3,144.5 801.3,146.1 802.3,146.1 803.4,146.0 804.4,145.3 805.4,145.2 806.5,144.7 807.5,144.2 808.5,144.8 809.6,145.0 810.6,144.2 811.7,145.9 812.7,152.1 813.7,152.5 814.8,152.5 815.8,152.6 816.8,152.6 817.9,153.0 818.9,151.6 819.9,151.6 821.0,153.9 822.0,156.1 823.1,155.1 824.1,155.1 825.1,154.9 826.2,155.8 827.2,157.0 828.2,157.2 829.3,157.2 830.3,157.4 831.3,155.6 832.4,156.6 833.4,156.6 834.5,158.3 835.5,159.2 836.5,159.0 837.6,159.2 838.6,159.3 839.6,159.3 840.7,157.9 841.7,157.9 842.7,157.0 843.8,157.2 844.8,156.2 845.9,156.1 846.9,157.3 847.9,159.0 849.0,158.0 850.0,156.9" fill="none" stroke="#2ca02c" stroke-width="1.5" />
<text x="60" y="65" font-size="11" fill="#2ca02c">vwap_pb_base</text>
</svg>