<svg xmlns="http://www.w3.org/2000/svg" width="900" height="400" viewBox="0 0 900 400">
<text x="450.0" y="20" text-anchor="middle" font-size="14">Profit factor per slice per arm (base cost)</text>
<line class="hline" x1="60" y1="147.8" x2="840" y2="147.8" stroke="#888" stroke-dasharray="4,2" />
<text x="844" y="151.8" font-size="10">1.0</text>
<text x="103.3" y="355" font-size="10" text-anchor="middle">E1</text>
<rect x="60.0" y="173.4" width="15.6" height="166.6" fill="#1f77b4" />
<rect x="77.3" y="179.8" width="15.6" height="160.2" fill="#ff7f0e" />
<rect x="94.7" y="143.9" width="15.6" height="196.1" fill="#2ca02c" />
<rect x="112.0" y="134.9" width="15.6" height="205.1" fill="#d62728" />
<text x="190.0" y="355" font-size="10" text-anchor="middle">E2</text>
<rect x="146.7" y="178.7" width="15.6" height="161.3" fill="#1f77b4" />
<rect x="164.0" y="183.2" width="15.6" height="156.8" fill="#ff7f0e" />
<rect x="181.3" y="226.0" width="15.6" height="114.0" fill="#2ca02c" />
<rect x="198.7" y="217.1" width="15.6" height="122.9" fill="#d62728" />
<text x="276.7" y="355" font-size="10" text-anchor="middle">E3</text>
<rect x="233.3" y="152.9" width="15.6" height="187.1" fill="#1f77b4" />
<rect x="250.7" y="165.8" width="15.6" height="174.2" fill="#ff7f0e" />
<rect x="268.0" y="154.0" width="15.6" height="186.0" fill="#2ca02c" />
<rect x="285.3" y="152.0" width="15.6" height="188.0" fill="#d62728" />
<text x="363.3" y="355" font-size="10" text-anchor="middle">C</text>
<rect x="320.0" y="163.7" width="15.6" height="176.3" fill="#1f77b4" />
<rect x="337.3" y="207.4" width="15.6" height="132.6" fill="#ff7f0e" />
<rect x="354.7" y="60.0" width="15.6" height="280.0" fill="#2ca02c" />
<rect x="372.0" y="152.1" width="15.6" height="187.9" fill="#d62728" />
<text x="450.0" y="355" font-size="10" text-anchor="middle">B</text>
<rect x="406.7" y="194.4" width="15.6" height="145.6" fill="#1f77b4" />
<rect x="424.0" y="145.8" width="15.6" height="194.2" fill="#ff7f0e" />
<rect x="441.3" y="340.0" width="15.6" height="0.0" fill="#2ca02c" />
<rect x="458.7" y="152.9" width="15.6" height="187.1" fill="#d62728" />
<text x="536.7" y="355" font-size="10" text-anchor="middle">A</text>
<rect x="493.3" y="187.0" width="15.6" height="153.0" fill="#1f77b4" />
<rect x="510.7" y="157.6" width="15.6" height="182.4" fill="#ff7f0e" />
<rect x="528.0" y="305.0" width="15.6" height="35.0" fill="#2ca02c" />
<rect x="545.3" y="178.3" width="15.6" height="161.7" fill="#d62728" />
<text x="623.3" y="355" font-size="10" text-anchor="middle">D1</text>
<rect x="580.0" y="153.1" width="15.6" height="186.9" fill="#1f77b4" />
<rect x="597.3" y="210.9" width="15.6" height="129.1" fill="#ff7f0e" />
<rect x="614.7" y="244.6" width="15.6" height="95.4" fill="#2ca02c" />
<rect x="632.0" y="213.4" width="15.6" height="126.6" fill="#d62728" />
<text x="710.0" y="355" font-size="10" text-anchor="middle">D2</text>
<rect x="666.7" y="141.4" width="15.6" height="198.6" fill="#1f77b4" />
<rect x="684.0" y="145.5" width="15.6" height="194.5" fill="#ff7f0e" />
<rect x="701.3" y="132.8" width="15.6" height="207.2" fill="#2ca02c" />
<rect x="718.7" y="205.0" width="15.6" height="135.0" fill="#d62728" />
<text x="796.7" y="355" font-size="10" text-anchor="middle">D3</text>
<rect x="753.3" y="123.2" width="15.6" height="216.8" fill="#1f77b4" />
<rect x="770.7" y="127.9" width="15.6" height="212.1" fill="#ff7f0e" />
<rect x="788.0" y="85.5" width="15.6" height="254.5" fill="#2ca02c" />
<rect x="805.3" y="184.2" width="15.6" height="155.8" fill="#d62728" />
<text x="70" y="35" font-size="11" fill="#1f77b4">ext2_base</text>
<text x="70" y="50" font-size="11" fill="#ff7f0e">orb30_base</text>
<text x="70" y="65" font-size="11" fill="#2ca02c">tjl_base</text>
<text x="70" y="80" font-size="11" fill="#d62728">vwap_pb_base</text>
</svg>